# xmcd CD database file
#
# Track frame offsets:
#	150
#	13501
#	24944
#	44070
#	61010
#	74173
#	97362
#	112630
#	128483
#	147258
#	162606
#	178093
#
# Disc length: 2808 seconds
#
# Revision: 2
# Processed by: cddbd v1.5.2PL0 Copyright (c) Steve Scherf et al.
# Submitted via: CDex 1.70beta2
#
DISCID=a70af60c
DTITLE=Grober Knüppel - Unbeugsam
DYEAR=2010
DGENRE=Hardcore
TTITLE0=Mit Vollgas an die Wand 
TTITLE1=Rein, Rein, Rein!
TTITLE2=Hart sein
TTITLE3=Das Rohr
TTITLE4=Wer schützt uns vor euch?
TTITLE5=Ein kleiner Arsch (ist schnell geleckt)
TTITLE6=Ich halt euch fest
TTITLE7=Ein Gesicht
TTITLE8=Bleibt stark
TTITLE9=Nein heisst nein
TTITLE10=Mit Gott im Herzen und dem Teufel im Leib
TTITLE11=Unter Geiern
EXTD=YEAR: 2010
EXTT0=
EXTT1=
EXTT2=
EXTT3=
EXTT4=
EXTT5=
EXTT6=
EXTT7=
EXTT8=
EXTT9=
EXTT10=
EXTT11=
PLAYORDER=
